<?xml version="1.0" encoding="utf-8"?>
<!-- Generator: Adobe Illustrator 15.0.0, SVG Export Plug-In . SVG Version: 6.00 Build 0)  -->
<!DOCTYPE svg PUBLIC "-//W3C//DTD SVG 1.1//EN" "http://www.w3.org/Graphics/SVG/1.1/DTD/svg11.dtd">
<svg version="1.1" id="Layer_1" xmlns="http://www.w3.org/2000/svg" xmlns:xlink="http://www.w3.org/1999/xlink" x="0px" y="0px"
	 width="215.302px" height="90.137px" viewBox="189.918 376.238 215.302 90.137"
	 enable-background="new 189.918 376.238 215.302 90.137" xml:space="preserve">
<g>
	<path fill="#494644" d="M192.746,415.748v-11.313h5.657v11.313h8.484v5.657h-8.484v8.485c0,2.332,0.848,4.313,2.475,6.01
		c1.626,1.625,3.677,2.475,6.01,2.475v5.656c-3.889,0-7.212-1.414-9.97-4.172s-4.172-6.08-4.172-9.969v-8.485h-2.828v-5.657H192.746
		z"/>
	<path fill="#494644" d="M232.342,429.89c0-2.334-0.848-4.314-2.475-6.01c-1.626-1.627-3.677-2.476-6.01-2.476
		s-4.313,0.849-6.01,2.476c-1.627,1.625-2.475,3.676-2.475,6.01v14.141h-5.657v-39.596h5.657v14.141
		c2.403-1.838,5.231-2.828,8.484-2.828c3.889,0,7.212,1.414,9.97,4.172c2.758,2.757,4.172,6.082,4.172,9.97v14.141h-5.657V429.89z"
		/>
	<path fill="#494644" d="M263.453,441.203c-2.404,1.838-5.232,2.828-8.484,2.828c-3.89,0-7.213-1.414-9.97-4.172
		c-2.758-2.758-4.172-6.08-4.172-9.969s1.414-7.213,4.172-9.97c2.757-2.758,6.08-4.172,9.97-4.172c3.252,0,6.08,0.919,8.484,2.828
		v-2.828h5.656v28.283h-5.656V441.203z M254.969,421.405c-2.334,0-4.313,0.849-6.011,2.476c-1.626,1.625-2.475,3.676-2.475,6.01
		c0,2.332,0.849,4.313,2.475,6.01c1.627,1.625,3.677,2.475,6.011,2.475c2.333,0,4.313-0.85,6.01-2.475
		c1.626-1.627,2.475-3.678,2.475-6.01c0-2.334-0.849-4.314-2.475-6.01C259.281,422.183,257.302,421.405,254.969,421.405z"/>
	<path fill="#494644" d="M277.595,404.435v39.596h-5.657v-39.596H277.595z"/>
	<path fill="#494644" d="M303.049,441.203c-2.404,1.838-5.232,2.828-8.484,2.828c-3.89,0-7.213-1.414-9.97-4.172
		c-2.758-2.758-4.172-6.08-4.172-9.969s1.414-7.213,4.172-9.97c2.757-2.758,6.08-4.172,9.97-4.172c3.252,0,6.08,0.919,8.484,2.828
		v-2.828h5.656v28.283h-5.656V441.203z M294.565,421.405c-2.334,0-4.313,0.849-6.011,2.476c-1.626,1.625-2.475,3.676-2.475,6.01
		c0,2.332,0.849,4.313,2.475,6.01c1.627,1.625,3.677,2.475,6.011,2.475c2.333,0,4.313-0.85,6.01-2.475
		c1.626-1.627,2.475-3.678,2.475-6.01c0-2.334-0.849-4.314-2.475-6.01C298.877,422.183,296.898,421.405,294.565,421.405z"/>
	<path fill="#494644" d="M311.533,415.748h5.657v1.485c1.696-0.99,3.535-1.485,5.656-1.485c3.111,0,5.798,1.131,7.99,3.323
		c0.141,0.142,0.354,0.354,0.494,0.495c0.142-0.142,0.283-0.354,0.495-0.495c2.192-2.192,4.879-3.323,7.99-3.323
		s5.798,1.131,7.989,3.323c2.192,2.192,3.323,4.879,3.323,7.991v16.969h-5.656v-16.969c0-1.557-0.565-2.9-1.626-4.031
		c-1.132-1.131-2.404-1.626-4.03-1.626c-1.556,0-2.899,0.565-4.03,1.626c-1.132,1.131-1.626,2.404-1.626,4.031v16.969h-5.657
		v-16.969c0-1.557-0.565-2.9-1.626-4.031c-1.131-1.131-2.404-1.626-4.03-1.626s-2.899,0.565-4.03,1.626
		c-1.132,1.131-1.626,2.404-1.626,4.031v16.969h-5.657V415.748z"/>
	<path fill="#494644" d="M359.615,429.89c0,2.332,0.849,4.313,2.475,6.01c1.626,1.625,3.677,2.475,6.01,2.475
		c2.334,0,4.313-0.85,6.011-2.475c1.626-1.627,2.475-3.678,2.475-6.01v-14.142h5.656v28.283h-5.656v-2.828
		c-2.404,1.838-5.232,2.828-8.485,2.828c-3.889,0-7.212-1.414-9.97-4.172c-2.757-2.758-4.171-6.08-4.171-9.969v-14.142h5.656V429.89
		L359.615,429.89z"/>
	<path fill="#494644" d="M394.756,432.082c-3.678-1.273-6.152-2.334-7.354-3.111c-1.202-0.848-2.051-2.262-2.404-4.313
		s0.142-4.102,1.556-6.082c1.484-1.979,3.959-2.97,7.424-3.111c3.535-0.071,7.07,0.919,10.747,3.111l-2.545,4.808
		c-3.04-1.838-5.656-2.757-7.777-2.757c-2.122,0-3.324,0.636-3.606,1.98c-0.283,1.344,0.495,2.475,2.333,3.252
		c1.839,0.85,3.748,1.557,5.798,2.191c2.051,0.637,3.536,1.344,4.525,2.193c0.919,0.848,1.485,2.121,1.697,3.746
		c0.212,1.627-0.07,3.182-0.637,4.596c-0.636,1.416-1.626,2.547-3.111,3.537c-1.414,0.988-3.464,1.555-6.01,1.768
		c-2.545,0.211-6.01-0.707-10.323-2.688l2.546-4.809c3.111,1.344,5.656,2.051,7.707,2.264c2.05,0.211,3.394-0.566,4.03-2.193
		C399.988,434.769,398.432,433.355,394.756,432.082z"/>
</g>
<g>
	<path fill="#52A7BE" d="M204.06,457.748l1.979,1.203c-0.212,0.424-0.565,0.777-0.849,1.131c-1.131,1.131-2.475,1.697-4.101,1.697
		s-2.97-0.566-4.101-1.697c-1.132-1.131-1.697-2.475-1.697-4.102c0-1.625,0.565-2.969,1.697-4.102
		c1.131-1.131,2.475-1.695,4.101-1.695s2.97,0.564,4.101,1.695c0.354,0.354,0.637,0.707,0.849,1.133l-1.979,1.201
		c-0.142-0.211-0.354-0.424-0.565-0.637c-0.707-0.707-1.485-0.988-2.475-0.988c-0.99,0-1.769,0.354-2.476,0.988
		c-0.707,0.707-0.989,1.486-0.989,2.475c0,0.99,0.354,1.768,0.989,2.475c0.707,0.707,1.485,0.99,2.476,0.99
		c0.989,0,1.768-0.354,2.475-0.99C203.777,458.171,203.918,457.96,204.06,457.748z"/>
	<path fill="#52A7BE" d="M213.111,461.708c-1.627,0-2.97-0.566-4.102-1.697c-1.131-1.133-1.697-2.475-1.697-4.102
		s0.566-2.971,1.697-4.102c1.132-1.131,2.475-1.697,4.102-1.697c1.626,0,2.97,0.566,4.101,1.697s1.697,2.475,1.697,4.102
		s-0.566,2.969-1.697,4.102C216.08,461.142,214.737,461.708,213.111,461.708z M213.111,452.445c-0.99,0-1.769,0.354-2.476,0.99
		c-0.707,0.707-0.989,1.484-0.989,2.475s0.354,1.768,0.989,2.475c0.707,0.707,1.485,0.99,2.476,0.99c0.989,0,1.768-0.354,2.475-0.99
		c0.707-0.707,0.989-1.484,0.989-2.475s-0.354-1.768-0.989-2.475C214.948,452.798,214.1,452.445,213.111,452.445z"/>
	<path fill="#52A7BE" d="M229.372,455.91c0-0.99-0.354-1.768-0.989-2.475c-0.707-0.707-1.485-0.99-2.475-0.99
		c-0.99,0-1.768,0.354-2.475,0.99c-0.708,0.707-0.99,1.484-0.99,2.475v5.799h-2.333v-11.598h2.333v1.133
		c0.99-0.779,2.121-1.133,3.465-1.133c1.626,0,2.97,0.566,4.101,1.697c1.132,1.131,1.697,2.475,1.697,4.102v5.799h-2.334V455.91z"/>
	<path fill="#52A7BE" d="M242.1,455.91c0-0.99-0.354-1.768-0.99-2.475c-0.707-0.707-1.484-0.99-2.475-0.99
		c-0.989,0-1.768,0.354-2.475,0.99c-0.707,0.707-0.989,1.484-0.989,2.475v5.799h-2.334v-11.598h2.334v1.133
		c0.989-0.779,2.121-1.133,3.464-1.133c1.627,0,2.97,0.566,4.102,1.697c1.131,1.131,1.696,2.475,1.696,4.102v5.799H242.1V455.91z"/>
	<path fill="#52A7BE" d="M253.908,458.244l2.05,1.131l-0.565,0.637c-1.131,1.131-2.475,1.697-4.101,1.697
		c-1.627,0-2.97-0.566-4.102-1.697c-1.131-1.133-1.696-2.475-1.696-4.102s0.565-2.971,1.696-4.102
		c1.132-1.131,2.475-1.697,4.102-1.697c1.626,0,2.97,0.566,4.101,1.697s1.697,2.475,1.697,4.102c0,0.424,0,0.777-0.071,1.131h-8.979
		c0.142,0.496,0.424,0.92,0.849,1.273c0.707,0.707,1.484,0.99,2.475,0.99s1.768-0.354,2.475-0.99
		C253.837,458.314,253.908,458.314,253.908,458.244z M254.615,454.779c-0.142-0.496-0.425-0.92-0.849-1.273
		c-0.707-0.707-1.485-0.99-2.475-0.99c-0.99,0-1.769,0.354-2.476,0.99c-0.354,0.354-0.636,0.85-0.848,1.273H254.615z"/>
	<path fill="#52A7BE" d="M267.06,457.748l1.979,1.203c-0.212,0.424-0.565,0.777-0.849,1.131c-1.131,1.131-2.475,1.697-4.101,1.697
		c-1.627,0-2.97-0.566-4.102-1.697c-1.131-1.131-1.696-2.475-1.696-4.102c0-1.625,0.565-2.969,1.696-4.102
		c1.132-1.131,2.475-1.695,4.102-1.695c1.626,0,2.97,0.564,4.101,1.695c0.354,0.354,0.637,0.707,0.849,1.133l-1.979,1.201
		c-0.142-0.211-0.354-0.424-0.566-0.637c-0.707-0.707-1.484-0.988-2.475-0.988c-0.989,0-1.768,0.354-2.475,0.988
		c-0.707,0.707-0.99,1.486-0.99,2.475c0,0.99,0.354,1.768,0.99,2.475c0.707,0.707,1.485,0.99,2.475,0.99
		c0.99,0,1.768-0.354,2.475-0.99C266.777,458.171,266.918,457.96,267.06,457.748z"/>
	<path fill="#52A7BE" d="M271.514,450.111v-4.596h2.333v4.596h3.465v2.334h-3.465v3.465c0,0.99,0.354,1.768,0.99,2.475
		c0.707,0.707,1.484,0.99,2.475,0.99v2.332c-1.626,0-2.97-0.564-4.101-1.695c-1.132-1.133-1.697-2.475-1.697-4.102v-3.465h-1.131
		v-2.334H271.514z"/>
	<path fill="#52A7BE" d="M278.444,447.849v-2.334h2.333v2.334H278.444z M278.444,461.708v-11.598h2.333v11.598H278.444z"/>
	<path fill="#52A7BE" d="M291.17,455.91c0-0.99-0.354-1.768-0.989-2.475c-0.707-0.707-1.485-0.99-2.475-0.99
		c-0.99,0-1.769,0.354-2.476,0.99c-0.707,0.707-0.989,1.484-0.989,2.475v5.799h-2.334v-11.598h2.334v1.133
		c0.989-0.779,2.121-1.133,3.465-1.133c1.626,0,2.969,0.566,4.101,1.697c1.131,1.131,1.697,2.475,1.697,4.102v5.799h-2.334V455.91z"
		/>
	<path fill="#52A7BE" d="M303.898,451.314v-1.131h2.333v10.393c0,1.627-0.565,2.971-1.697,4.102
		c-1.131,1.131-2.475,1.697-4.101,1.697v-2.334c0.99,0,1.768-0.354,2.475-0.99c0.707-0.707,0.99-1.484,0.99-2.475
		c-0.99,0.779-2.121,1.133-3.465,1.133c-1.626,0-2.97-0.566-4.101-1.697c-1.132-1.133-1.697-2.475-1.697-4.102
		s0.565-2.971,1.697-4.102c1.131-1.131,2.475-1.697,4.101-1.697C301.777,450.111,302.907,450.537,303.898,451.314z M300.433,452.445
		c-0.99,0-1.768,0.354-2.475,0.99c-0.707,0.707-0.99,1.484-0.99,2.475s0.354,1.768,0.99,2.475c0.707,0.707,1.484,0.99,2.475,0.99
		s1.768-0.354,2.475-0.99c0.707-0.707,0.99-1.484,0.99-2.475s-0.354-1.768-0.99-2.475
		C302.2,452.798,301.423,452.445,300.433,452.445z"/>
	<path fill="#52A7BE" d="M314.433,450.111v-4.596h2.333v4.596h3.465v2.334h-3.465v3.465c0,0.99,0.354,1.768,0.99,2.475
		c0.707,0.707,1.484,0.99,2.475,0.99v2.332c-1.626,0-2.97-0.564-4.101-1.695c-1.132-1.133-1.697-2.475-1.697-4.102v-3.465h-1.132
		v-2.334H314.433z"/>
	<path fill="#52A7BE" d="M330.624,455.91c0-0.99-0.354-1.768-0.989-2.475c-0.637-0.707-1.485-0.99-2.475-0.99
		c-0.99,0-1.769,0.354-2.476,0.99c-0.707,0.707-0.989,1.484-0.989,2.475v5.799h-2.334v-16.193h2.334v5.799
		c0.989-0.777,2.121-1.131,3.465-1.131c1.626,0,2.97,0.564,4.101,1.695c1.131,1.133,1.697,2.477,1.697,4.102v5.799h-2.334V455.91z"
		/>
	<path fill="#52A7BE" d="M342.503,458.244l2.051,1.131l-0.565,0.637c-1.132,1.131-2.475,1.697-4.102,1.697
		c-1.626,0-2.97-0.566-4.101-1.697c-1.132-1.133-1.697-2.475-1.697-4.102s0.565-2.971,1.697-4.102
		c1.131-1.131,2.475-1.697,4.101-1.697c1.627,0,2.97,0.566,4.102,1.697c1.131,1.131,1.696,2.475,1.696,4.102
		c0,0.424,0,0.777-0.07,1.131h-8.979c0.141,0.496,0.424,0.92,0.848,1.273c0.708,0.707,1.485,0.99,2.476,0.99
		c0.989,0,1.768-0.354,2.475-0.99C342.433,458.314,342.433,458.314,342.503,458.244z M343.21,454.779
		c-0.142-0.496-0.424-0.92-0.849-1.273c-0.707-0.707-1.484-0.99-2.475-0.99c-0.989,0-1.768,0.354-2.475,0.99
		c-0.354,0.354-0.637,0.85-0.849,1.273H343.21z"/>
	<path fill="#52A7BE" d="M362.019,460.576c-0.99,0.779-2.122,1.133-3.465,1.133c-1.626,0-2.97-0.566-4.102-1.697
		c-1.131-1.133-1.696-2.475-1.696-4.102s0.565-2.971,1.696-4.102c1.132-1.131,2.476-1.697,4.102-1.697
		c1.343,0,2.475,0.354,3.465,1.133v-5.799h2.333v16.191h-2.333V460.576z M358.554,452.445c-0.99,0-1.768,0.354-2.475,0.99
		c-0.707,0.707-0.99,1.484-0.99,2.475s0.354,1.768,0.99,2.475c0.707,0.707,1.484,0.99,2.475,0.99c0.989,0,1.768-0.354,2.475-0.99
		c0.707-0.707,0.99-1.484,0.99-2.475s-0.354-1.768-0.99-2.475S359.473,452.445,358.554,452.445z"/>
	<path fill="#52A7BE" d="M371.281,461.708c-1.626,0-2.97-0.566-4.101-1.697c-1.131-1.133-1.697-2.475-1.697-4.102
		s0.566-2.971,1.697-4.102s2.475-1.697,4.101-1.697c1.627,0,2.97,0.566,4.102,1.697c1.131,1.131,1.697,2.475,1.697,4.102
		s-0.566,2.969-1.697,4.102C374.25,461.142,372.836,461.708,371.281,461.708z M371.281,452.445c-0.989,0-1.768,0.354-2.475,0.99
		c-0.707,0.707-0.989,1.484-0.989,2.475s0.354,1.768,0.989,2.475c0.707,0.707,1.485,0.99,2.475,0.99c0.99,0,1.769-0.354,2.476-0.99
		c0.707-0.707,0.989-1.484,0.989-2.475s-0.354-1.768-0.989-2.475C373.119,452.728,372.2,452.445,371.281,452.445z"/>
	<path fill="#52A7BE" d="M386.978,457.748l1.979,1.203c-0.212,0.424-0.565,0.777-0.848,1.131c-1.132,1.131-2.476,1.697-4.102,1.697
		s-2.97-0.566-4.101-1.697c-1.132-1.131-1.697-2.475-1.697-4.102c0-1.625,0.565-2.969,1.697-4.102
		c1.131-1.131,2.475-1.695,4.101-1.695s2.97,0.564,4.102,1.695c0.354,0.354,0.636,0.707,0.848,1.133l-1.979,1.201
		c-0.142-0.211-0.354-0.424-0.565-0.637c-0.707-0.707-1.485-0.988-2.475-0.988c-0.99,0-1.768,0.354-2.475,0.988
		c-0.707,0.707-0.99,1.486-0.99,2.475c0,0.99,0.354,1.768,0.99,2.475c0.707,0.707,1.484,0.99,2.475,0.99
		c0.989,0,1.768-0.354,2.475-0.99C386.696,458.171,386.836,457.96,386.978,457.748z"/>
	<path fill="#52A7BE" d="M394.261,456.83c-1.485-0.496-2.546-0.92-3.041-1.273s-0.849-0.92-0.989-1.768
		c-0.142-0.85,0.07-1.697,0.636-2.475c0.566-0.777,1.627-1.203,3.041-1.273s2.898,0.354,4.384,1.273l-1.061,1.979
		c-1.273-0.707-2.334-1.131-3.183-1.131c-0.848,0-1.343,0.283-1.484,0.85c-0.142,0.564,0.212,0.99,0.919,1.344
		s1.556,0.635,2.404,0.918s1.484,0.566,1.838,0.92s0.637,0.848,0.707,1.555c0.071,0.707,0,1.273-0.282,1.838
		c-0.283,0.566-0.707,1.061-1.272,1.414c-0.566,0.355-1.414,0.637-2.475,0.709c-1.062,0.07-2.476-0.283-4.243-1.133l1.061-1.979
		c1.273,0.564,2.334,0.848,3.183,0.918c0.848,0.07,1.414-0.211,1.626-0.918C396.382,457.96,395.745,457.324,394.261,456.83z"/>
</g>
<ellipse fill="#494644" cx="367.675" cy="394.395" rx="4.596" ry="1.838"/>
<g>
	<path fill="#45A0BA" d="M389.948,396.586c-0.07-0.283-1.202-2.616-1.556-3.677c-1.414-4.525-8.979-10.323-10.465-11.171
		c-1.484-0.849-2.828-1.273-4.171-1.909c-1.061-0.495-3.96-1.838-4.597-2.121c-1.696-0.778-3.323-1.838-5.303-1.344
		c-0.707,0.212-10.677,1.061-13.293,2.404s-3.323,2.404-5.444,2.757c-0.283,0.071-0.495,0.283-0.707,0.495s-2.898,2.757-3.465,3.394
		c-1.484,1.697-3.04,3.394-4.172,5.374c-0.494,0.071-0.707,0.495-0.919,0.849c-0.354,0.283-2.333,6.01-2.687,6.717l0,0
		c-0.425,2.121,0,4.171,0.707,6.222c0.212,0.636,0.354,1.414,1.202,1.697c0.495,0.283,0.849,0.849,1.556,0.495
		c0.141,0,0.212,0,0.354,0c1.061,0.495,2.191,0.07,3.252,0.283l0,0c0.425,0.354,0.92,0.283,1.485,0.283
		c1.131,0.424,2.263,0.354,3.394,0.071c2.121-0.495,4.172-0.707,6.081,0.707c1.061,0.778,4.454,1.768,5.728,1.343
		c1.201-0.354,2.191,0.142,3.11,0.849c0.849,0.565,3.536,3.465,3.96,3.677c1.414,0.707,2.687,1.838,4.313,2.192
		c1.979,0.424,6.505-2.616,6.929-2.545c0.283,0.071,5.586-4.03,6.505-3.535c1.344,0.707,8.414-5.515,8.485-7.919l0,0l0,0
		C391.573,400.192,390.231,398.425,389.948,396.586z"/>
	<g>
		<g>
			<defs>
				<path id="SVGID_1_" d="M389.948,396.586c-0.07-0.283-1.202-2.616-1.556-3.677c-1.414-4.525-8.979-10.323-10.465-11.171
					c-1.484-0.849-2.828-1.273-4.171-1.909c-1.061-0.495-3.96-1.838-4.597-2.121c-1.696-0.778-3.323-1.838-5.303-1.344
					c-0.707,0.212-10.677,1.061-13.293,2.404s-3.323,2.404-5.444,2.757c-0.283,0.071-0.495,0.283-0.707,0.495
					s-2.898,2.757-3.465,3.394c-1.484,1.697-3.04,3.394-4.172,5.374c-0.494,0.071-0.707,0.495-0.919,0.849
					c-0.354,0.283-2.333,6.01-2.687,6.717l0,0c-0.425,2.121,0,4.171,0.707,6.222c0.212,0.636,0.354,1.414,1.202,1.697
					c0.495,0.283,0.849,0.849,1.556,0.495c0.141,0,0.212,0,0.354,0c1.061,0.495,2.191,0.07,3.252,0.283l0,0
					c0.425,0.354,0.92,0.283,1.485,0.283c1.131,0.424,2.263,0.354,3.394,0.071c2.121-0.495,4.172-0.707,6.081,0.707
					c1.061,0.778,4.454,1.768,5.728,1.343c1.201-0.354,2.191,0.142,3.11,0.849c0.849,0.565,3.536,3.465,3.96,3.677
					c1.414,0.707,2.687,1.838,4.313,2.192c1.979,0.424,6.505-2.616,6.929-2.545c0.283,0.071,5.586-4.03,6.505-3.535
					c1.344,0.707,8.414-5.515,8.485-7.919l0,0l0,0C391.573,400.192,390.231,398.425,389.948,396.586z"/>
			</defs>
			<clipPath id="SVGID_2_">
				<use xlink:href="#SVGID_1_"  overflow="visible"/>
			</clipPath>
			<g clip-path="url(#SVGID_2_)">
				<path fill="#FFFFFF" d="M368.452,410.092c0,0.565,0.425,0.99,0.99,0.99s0.99-0.424,0.99-0.99c0-0.566-0.425-0.99-0.99-0.99
					c-0.07,0-0.142,0-0.212,0.071l-1.839-2.97c0.212-0.212,0.354-0.424,0.425-0.707l1.414,0.071c0.07,0.212,0.282,0.354,0.565,0.354
					c0.354,0,0.637-0.283,0.637-0.636s-0.283-0.637-0.637-0.637c-0.212,0-0.424,0.142-0.565,0.354l-1.414-0.07
					c-0.142-0.707-0.707-1.273-1.485-1.273c-0.849,0-1.484,0.636-1.484,1.485c0,0.142,0,0.283,0.07,0.424l-3.818,1.979
					c-0.141-0.212-0.424-0.283-0.707-0.283c-0.565,0-0.989,0.424-0.989,0.99c0,0.565,0.424,0.99,0.989,0.99
					c0.566,0,0.99-0.424,0.99-0.99c0-0.071,0-0.071,0-0.142l3.818-1.98c0.07,0.071,0.212,0.212,0.282,0.283l-1.908,4.171
					c-0.142,0-0.213-0.071-0.354-0.071c-0.849,0-1.485,0.637-1.485,1.485c0,0.849,0.637,1.485,1.485,1.485
					c0.848,0,1.484-0.636,1.484-1.485c0-0.495-0.212-0.919-0.637-1.202l1.909-4.172c0.142,0,0.212,0.071,0.354,0.071
					c0.212,0,0.354-0.071,0.565-0.071l1.839,2.97C368.524,409.667,368.452,409.879,368.452,410.092z"/>
				<path fill="#FFFFFF" d="M390.443,395.031c0-0.849-0.637-1.485-1.485-1.485c-0.354,0-0.636,0.07-0.848,0.283l-3.536-3.394
					c0.071-0.141,0.071-0.283,0.071-0.424c0-0.565-0.425-0.99-0.99-0.99s-0.99,0.424-0.99,0.99c0,0.566,0.425,0.99,0.99,0.99
					c0.142,0,0.354-0.071,0.495-0.142l3.535,3.394c-0.07,0.141-0.142,0.212-0.142,0.354l-1.556-0.142
					c-0.07-0.424-0.494-0.778-0.919-0.778c-0.565,0-0.989,0.424-0.989,0.99c0,0.566,0.424,0.99,0.989,0.99
					c0.425,0,0.707-0.212,0.919-0.566l1.415,0.142l-5.162,1.343l-1.414-3.394c0.424-0.283,0.707-0.708,0.707-1.273
					c0-0.849-0.637-1.485-1.484-1.485l0,0l-0.92-4.737c0.566-0.212,0.92-0.778,0.92-1.343c0-0.849-0.637-1.485-1.485-1.485
					c-0.707,0-1.344,0.495-1.484,1.202h-3.323c-0.142-0.707-0.707-1.202-1.485-1.202c0,0,0,0-0.07,0l-0.637-2.829
					c0.495-0.212,0.849-0.777,0.849-1.343c0-0.849-0.637-1.485-1.484-1.485c-0.849,0-1.485,0.636-1.485,1.485
					c0,0.071,0,0.142,0,0.212l-2.191,0.708c-0.142-0.212-0.425-0.424-0.778-0.424c-0.565,0-0.99,0.424-0.99,0.99
					s0.425,0.99,0.99,0.99s0.99-0.424,0.99-0.99l0,0l2.191-0.707c0.283,0.424,0.707,0.778,1.273,0.778c0,0,0,0,0.07,0l0.637,2.828
					c-0.495,0.212-0.849,0.778-0.849,1.343c0,0,0,0,0,0.071l-1.061,0.212c-0.142-0.283-0.495-0.495-0.849-0.495
					c-0.565,0-0.99,0.424-0.99,0.99c0,0.566,0.425,0.99,0.99,0.99c0.495,0,0.919-0.424,0.99-0.919l1.061-0.212
					c0.212,0.495,0.777,0.848,1.343,0.848c0.354,0,0.707-0.141,0.99-0.354l2.828,2.122c0,0.07-0.07,0.212-0.07,0.283
					c0,0.565,0.424,0.99,0.989,0.99c0.566,0,0.99-0.424,0.99-0.99c0-0.566-0.424-0.99-0.99-0.99c-0.212,0-0.424,0.07-0.565,0.212
					l-2.828-2.121c0.07-0.142,0.07-0.212,0.142-0.354h3.323c0.142,0.707,0.707,1.202,1.414,1.202l0.919,4.737
					c-0.354,0.142-0.637,0.424-0.777,0.778l-3.395-1.061c0-0.071,0-0.071,0-0.141c0-0.849-0.636-1.485-1.484-1.485
					c-0.707,0-1.344,0.495-1.485,1.202h-2.616c-0.141-0.707-0.707-1.202-1.484-1.202c-0.142,0-0.283,0-0.495,0.07l-1.979-3.464
					c0.283-0.283,0.495-0.636,0.495-1.131c0-0.849-0.637-1.485-1.485-1.485c-0.142,0-0.282,0-0.424,0.071l-1.626-2.97
					c0.354-0.283,0.565-0.707,0.565-1.131c0-0.849-0.637-1.485-1.485-1.485s-1.484,0.636-1.484,1.485
					c0,0.283,0.07,0.566,0.282,0.849l-1.626,1.697c-0.142-0.071-0.282-0.142-0.424-0.142c-0.565,0-0.99,0.424-0.99,0.99
					c0,0.565,0.425,0.99,0.99,0.99s0.989-0.424,0.989-0.99c0-0.142-0.07-0.283-0.141-0.424l1.626-1.697
					c0.07,0,0.142,0.07,0.142,0.07l-1.909,7.354h-0.071c-0.282,0-0.565,0.071-0.777,0.212l-4.525-5.091
					c0.212-0.283,0.283-0.566,0.283-0.919c0-0.849-0.637-1.485-1.485-1.485s-1.484,0.636-1.484,1.485c0,0.212,0.07,0.354,0.07,0.495
					l-1.556,0.919c-0.142-0.141-0.354-0.212-0.636-0.212c-0.566,0-0.99,0.424-0.99,0.99c0,0.566,0.424,0.99,0.99,0.99
					c0.565,0,0.989-0.424,0.989-0.99c0-0.071,0-0.141,0-0.212l1.556-0.919c0.283,0.283,0.637,0.495,1.061,0.495
					c0.283,0,0.565-0.071,0.778-0.212l4.524,5.091c-0.07,0.07-0.07,0.141-0.141,0.212l-2.546-0.778
					c0.354-0.141,0.637-0.495,0.637-0.919c0-0.566-0.425-0.99-0.99-0.99s-0.99,0.424-0.99,0.99c0,0.07,0,0.07,0,0.141l-0.565,0.283
					l-8.131-2.404c0-0.071,0-0.071,0-0.142c0-0.848-0.637-1.485-1.485-1.485s-1.484,0.637-1.484,1.485
					c0,0.849,0.636,1.485,1.484,1.485c0.425,0,0.778-0.141,1.061-0.424l3.818,2.616c-0.07,0.212-0.142,0.424-0.142,0.637
					c0,0,0,0,0,0.07l-2.05,0.424c-0.142-0.283-0.495-0.495-0.849-0.495c-0.565,0-0.99,0.424-0.99,0.99c0,0.565,0.425,0.99,0.99,0.99
					c0.495,0,0.919-0.354,0.989-0.848l2.051-0.424c0.212,0.495,0.637,0.778,1.202,0.848l-0.07,4.879
					c-0.425,0.071-0.778,0.354-0.99,0.707l-1.768-0.636l1.626-1.202c0.071,0.071,0.142,0.071,0.283,0.071
					c0.354,0,0.636-0.283,0.636-0.636s-0.282-0.637-0.636-0.637s-0.637,0.283-0.637,0.637v0.071l-1.909,1.414l-3.818-1.344
					c0-0.07,0-0.141,0-0.212c0-0.778-0.636-1.485-1.484-1.485l-0.354-2.05c0.282-0.142,0.495-0.495,0.495-0.849
					c0-0.566-0.425-0.99-0.99-0.99s-0.99,0.424-0.99,0.99c0,0.495,0.354,0.919,0.849,0.919l0.354,2.051
					c-0.565,0.212-0.919,0.778-0.919,1.343c0,0.495,0.283,0.99,0.637,1.273l-1.414,3.464l0,0c-0.283,0-0.495,0.142-0.707,0.283
					l-2.192-1.131c0.07-0.141,0.07-0.283,0.07-0.424c0-0.849-0.636-1.485-1.484-1.485s-1.485,0.636-1.485,1.485
					c0,0.848,0.637,1.485,1.485,1.485c0.495,0,0.849-0.212,1.131-0.566l2.192,1.131c0,0.071,0,0.142,0,0.142
					c0,0.565,0.424,0.99,0.99,0.99c0.565,0,0.989-0.424,0.989-0.99c0-0.283-0.142-0.566-0.354-0.778l1.344-3.394
					c0.07,0,0.212,0,0.283,0c0.565,0,0.989-0.283,1.272-0.707l3.465,1.202l-0.566,0.424c-0.141-0.142-0.354-0.212-0.565-0.212
					c-0.565,0-0.99,0.424-0.99,0.99c0,0.354,0.213,0.708,0.566,0.849l-0.212,1.626l-0.92-0.212c-0.07-0.283-0.282-0.495-0.636-0.495
					s-0.637,0.283-0.637,0.636s0.283,0.636,0.637,0.636c0.212,0,0.354-0.071,0.494-0.212l0.99,0.212l-0.212,1.273
					c-0.637,0.071-1.202,0.495-1.344,1.131l-6.929-0.424c-0.071-0.212-0.283-0.354-0.566-0.354c-0.354,0-0.636,0.283-0.636,0.636
					s0.282,0.636,0.636,0.636c0.213,0,0.425-0.141,0.566-0.283l6.929,0.424c0.071,0.707,0.637,1.202,1.344,1.272l-5.798,0.99
					c-0.212-0.566-0.778-0.99-1.414-0.99c-0.849,0-1.485,0.637-1.485,1.485c0,0.849,0.637,1.485,1.485,1.485
					c0.777,0,1.484-0.636,1.484-1.414l13.151-2.192l-2.05,1.202c-0.142-0.142-0.425-0.283-0.637-0.283
					c-0.495,0-0.919,0.354-0.919,0.848l-5.162,0.99c-0.142-0.283-0.495-0.495-0.849-0.495c-0.565,0-0.989,0.424-0.989,0.99
					c0,0.566,0.424,0.99,0.989,0.99c0.495,0,0.92-0.354,0.92-0.849l5.161-0.99c0.142,0.283,0.495,0.495,0.849,0.495
					c0.565,0,0.99-0.424,0.99-0.99c0-0.071,0-0.142,0-0.212l2.121-1.273c0.282,0.283,0.636,0.495,1.131,0.495l0.778,3.889
					c-0.566,0.212-0.92,0.778-0.92,1.344c0,0.848,0.637,1.484,1.485,1.484s1.484-0.636,1.484-1.484c0-0.354-0.141-0.708-0.354-0.99
					l3.111-3.959c0.071,0.071,0.212,0.071,0.354,0.071c0.565,0,0.99-0.424,0.99-0.99c0-0.565-0.425-0.99-0.99-0.99
					s-0.99,0.424-0.99,0.99c0,0.212,0.071,0.424,0.142,0.566l-3.11,3.959c-0.213-0.071-0.425-0.142-0.637-0.142l-0.778-3.889
					c0.566-0.212,0.92-0.778,0.92-1.343c0-0.071,0-0.142,0-0.142l5.02-1.626c0.283,0.424,0.707,0.778,1.273,0.778
					c0.848,0,1.484-0.637,1.484-1.485c0-0.212-0.07-0.424-0.142-0.636l5.798-4.101l0.99,2.758c-0.424,0.283-0.707,0.707-0.707,1.272
					c0,0.071,0,0.071,0,0.142l-2.687,0.778c-0.142-0.283-0.495-0.424-0.778-0.424c-0.565,0-0.989,0.424-0.989,0.99
					c0,0.566,0.424,0.99,0.989,0.99c0.495,0,0.99-0.424,0.99-0.919l2.687-0.778c0.283,0.495,0.707,0.778,1.273,0.778
					c0.282,0,0.565-0.071,0.777-0.212l2.333,2.545c-0.212,0.212-0.282,0.565-0.282,0.849c0,0.848,0.636,1.485,1.484,1.485
					c0.354,0,0.707-0.142,0.919-0.354l4.03,3.394c-0.141,0.212-0.212,0.424-0.212,0.707c0,0.212,0.071,0.424,0.142,0.566
					l-3.889,2.616c-0.142-0.142-0.354-0.283-0.495-0.354l0.424-2.475c0.495-0.07,0.849-0.495,0.849-0.919
					c0-0.566-0.424-0.99-0.989-0.99c-0.566,0-0.99,0.424-0.99,0.99c0,0.354,0.212,0.707,0.495,0.849l-0.425,2.475
					c-0.777,0-1.414,0.707-1.414,1.485v0.071l-2.263,0.636c-0.142-0.283-0.495-0.424-0.777-0.424c-0.565,0-0.99,0.424-0.99,0.99
					c0,0.566,0.425,0.99,0.99,0.99c0.495,0,0.919-0.424,0.99-0.919l2.262-0.636c0.213,0.495,0.707,0.849,1.344,0.849
					c0.849,0,1.485-0.637,1.485-1.485c0-0.212-0.071-0.424-0.142-0.566l3.889-2.616c0.283,0.283,0.637,0.424,1.061,0.424
					c0.849,0,1.485-0.636,1.485-1.485c0-0.212-0.071-0.354-0.071-0.495l3.606-2.192c0.282,0.283,0.636,0.495,1.061,0.495
					c0.849,0,1.484-0.636,1.484-1.485c0-0.354-0.142-0.636-0.282-0.848l1.201-1.556c0.071,0.07,0.213,0.07,0.354,0.07
					c0.566,0,0.99-0.424,0.99-0.99c0-0.565-0.424-0.99-0.99-0.99c-0.565,0-0.989,0.424-0.989,0.99c0,0.212,0.07,0.424,0.142,0.566
					l-1.202,1.555c-0.212-0.141-0.495-0.212-0.778-0.212c-0.282,0-0.565,0.071-0.777,0.212l-5.444-6.081
					c0.141-0.212,0.282-0.495,0.282-0.849v-0.071l1.839-0.495l1.131,2.757c-0.212,0.212-0.354,0.424-0.354,0.707
					c0,0.566,0.424,0.99,0.99,0.99c0.565,0,0.989-0.424,0.989-0.99c0-0.565-0.424-0.99-0.989-0.99h-0.071l-1.131-2.687l5.303-1.343
					c0.142,0.354,0.425,0.565,0.778,0.707l-0.283,1.343c-0.495,0.071-0.849,0.495-0.849,0.919c0,0.565,0.425,0.99,0.99,0.99
					s0.989-0.424,0.989-0.99c0-0.354-0.212-0.707-0.494-0.849l0.282-1.343C389.806,396.516,390.443,395.809,390.443,395.031z
					 M368.382,391.496c0.637-0.071,1.202-0.565,1.272-1.202h2.616c0,0.141,0.071,0.283,0.142,0.354l-4.313,3.394L368.382,391.496z
					 M349.008,387.465l-3.535-2.404l7.142,2.121l-1.414,0.636c-0.283-0.424-0.707-0.707-1.272-0.707
					C349.645,387.041,349.291,387.183,349.008,387.465z M344.836,397.293c0.425-0.07,0.778-0.495,0.778-0.919
					c0-0.142,0-0.212-0.07-0.354l0.848-0.636l2.122,0.778c0,0.07,0,0.141,0,0.212c0,0.495,0.282,0.99,0.707,1.273l-0.637,1.626
					h-0.07c-0.354,0-0.637,0.212-0.849,0.495l-3.111-0.707L344.836,397.293z M359.331,399.062l-2.403-1.131c0-0.071,0-0.071,0-0.142
					c0-0.565-0.425-0.99-0.99-0.99s-0.99,0.424-0.99,0.99c0,0.566,0.425,0.99,0.99,0.99c0.283,0,0.565-0.141,0.707-0.283
					l2.404,1.131c0,0.142-0.071,0.212-0.071,0.354c0,0.071,0,0.142,0,0.142l-5.02,1.626c-0.283-0.424-0.707-0.778-1.273-0.778
					c-0.777,0-1.484,0.637-1.484,1.415l-6.788,1.131c0.495-0.212,0.849-0.777,0.849-1.343c0-0.636-0.425-1.202-0.99-1.414
					l0.212-1.273l3.041,0.708c0.07,0.495,0.424,0.919,0.989,0.919c0.566,0,0.99-0.424,0.99-0.99c0-0.283-0.142-0.566-0.354-0.778
					l0.637-1.626c0.07,0,0.142,0,0.282,0c0.849,0,1.485-0.636,1.485-1.485c0-0.707-0.495-1.272-1.202-1.414l0.07-4.878
					c0.213-0.071,0.425-0.142,0.566-0.283l3.182,2.404c-0.071,0.07-0.071,0.212-0.071,0.354c0,0.565,0.425,0.99,0.99,0.99
					s0.99-0.424,0.99-0.99c0-0.566-0.425-0.99-0.99-0.99c-0.212,0-0.424,0.071-0.565,0.212l-3.111-2.404
					c0.07-0.212,0.142-0.424,0.142-0.636c0-0.071,0-0.212,0-0.283l2.051-0.919l4.242,1.273c0,0.071,0,0.071,0,0.142
					c0,0.636,0.424,1.202,0.989,1.414l-0.494,3.04c-0.778,0-1.414,0.708-1.414,1.485c0,0.849,0.636,1.485,1.484,1.485
					c0.07,0,0.212,0,0.283,0l1.061,2.616C359.543,398.778,359.403,398.92,359.331,399.062z M367.533,394.607l-6.01,4.242
					c-0.283-0.283-0.637-0.424-0.99-0.424c-0.07,0-0.212,0-0.283,0l-1.061-2.616c0.425-0.283,0.637-0.707,0.637-1.202
					c0-0.637-0.424-1.202-0.99-1.414l0.495-3.041c0.778,0,1.414-0.707,1.414-1.485c0-0.566-0.354-1.061-0.849-1.343l1.909-7.354
					h0.071c0.142,0,0.282,0,0.424-0.071l1.627,2.97c-0.354,0.283-0.566,0.707-0.566,1.131c0,0.848,0.637,1.485,1.485,1.485
					c0.142,0,0.282,0,0.495-0.071l1.979,3.464c-0.142,0.142-0.283,0.283-0.354,0.424l-2.121-0.636c0-0.495-0.425-0.919-0.99-0.919
					s-0.99,0.424-0.99,0.99c0,0.565,0.425,0.99,0.99,0.99c0.354,0,0.637-0.142,0.778-0.424l2.121,0.636c0,0.071,0,0.071,0,0.142
					c0,0.212,0.07,0.424,0.141,0.565l-3.889,2.475c-0.142-0.142-0.354-0.212-0.636-0.212c-0.566,0-0.99,0.424-0.99,0.99
					c0,0.565,0.424,0.99,0.99,0.99c0.565,0,0.989-0.424,0.989-0.99c0-0.071,0-0.142-0.07-0.212l3.889-2.475
					c0.142,0.142,0.354,0.283,0.637,0.354L367.533,394.607z M379.836,397.082c-0.212-0.495-0.777-0.849-1.343-0.849
					c-0.849,0-1.485,0.637-1.485,1.485c0,0.849,0.637,1.485,1.485,1.485l0,0l0.989,4.596c-0.282,0.141-0.494,0.495-0.494,0.848
					c0,0.566,0.424,0.99,0.989,0.99s0.99-0.424,0.99-0.99c0-0.495-0.354-0.919-0.849-0.99l-0.99-4.596
					c0.071,0,0.142-0.071,0.213-0.142l5.515,5.586c-0.142,0.212-0.283,0.495-0.283,0.849c0,0.212,0.071,0.354,0.071,0.495
					l-3.606,2.192c-0.282-0.283-0.636-0.495-1.061-0.495c-0.354,0-0.707,0.142-0.919,0.354l-4.03-3.394
					c0.142-0.212,0.212-0.424,0.212-0.707c0-0.849-0.637-1.485-1.484-1.485c-0.283,0-0.566,0.071-0.778,0.212l-2.333-2.545
					c0.212-0.212,0.283-0.565,0.283-0.849c0-0.354-0.142-0.636-0.283-0.848l2.687-2.97c0.142,0.071,0.283,0.071,0.425,0.071
					c0.565,0,0.989-0.424,0.989-0.99c0-0.565-0.424-0.99-0.989-0.99c-0.566,0-0.99,0.424-0.99,0.99c0,0.142,0.07,0.354,0.142,0.495
					l-2.688,2.97c-0.212-0.142-0.494-0.212-0.777-0.212c-0.07,0-0.142,0-0.212,0l-1.061-2.899l4.666-3.677
					c0.283,0.212,0.566,0.354,0.99,0.354c0.565,0,1.061-0.354,1.272-0.777l3.465,1.061c0,0,0,0,0,0.07
					c0,0.849,0.637,1.485,1.485,1.485c0.07,0,0.141,0,0.212,0l1.343,3.323L379.836,397.082z"/>
			</g>
		</g>
	</g>
	<ellipse fill="#494644" cx="367.817" cy="394.748" rx="3.959" ry="1.555"/>
</g>
</svg>
